<?xml version="1.0" encoding="utf-8"?>
<!-- Generator: Adobe Illustrator 15.0.2, SVG Export Plug-In . SVG Version: 6.00 Build 0)  -->
<!DOCTYPE svg PUBLIC "-//W3C//DTD SVG 1.1//EN" "http://www.w3.org/Graphics/SVG/1.1/DTD/svg11.dtd">
<svg version="1.1"
	 id="svg2" inkscape:export-filename="/Users/Vindauga/Documents/Jared Davis LLC Work &amp; Docs/Chuck Knutson - PA /Business Documents/Kinpoint(20 MG)/Logos:Images/Kinpoint/kinpoint_Logo_Bitmap_No_Tagline_Large.png" xmlns:sodipodi="http://sodipodi.sourceforge.net/DTD/sodipodi-0.dtd" xmlns:svg="http://www.w3.org/2000/svg" xmlns:cc="http://creativecommons.org/ns#" xmlns:dc="http://purl.org/dc/elements/1.1/" xmlns:inkscape="http://www.inkscape.org/namespaces/inkscape" xmlns:rdf="http://www.w3.org/1999/02/22-rdf-syntax-ns#" sodipodi:docname="kinpoint_Logo_No_Tagline.svg" inkscape:export-ydpi="900" inkscape:version="0.48.2 r9819" inkscape:export-xdpi="900"
	 xmlns="http://www.w3.org/2000/svg" xmlns:xlink="http://www.w3.org/1999/xlink" x="0px" y="0px" width="1136.918px"
	 height="243.604px" viewBox="-1.062 -0.832 1136.918 243.604" enable-background="new -1.062 -0.832 1136.918 243.604"
	 xml:space="preserve">
<sodipodi:namedview  id="namedview4" objecttolerance="10" bordercolor="#666666" borderopacity="1" borderlayer="true" inkscape:zoom="0.89001173" showgrid="false" gridtolerance="10" inkscape:cy="230.84503" pagecolor="#ffffff" inkscape:cx="333.13781" guidetolerance="10" inkscape:pageopacity="0" inkscape:pageshadow="2" inkscape:window-width="1670" inkscape:window-height="1224" inkscape:window-x="1425" inkscape:window-y="29" inkscape:current-layer="g14" inkscape:window-maximized="0">
	</sodipodi:namedview>
<g>
	<g id="g14">
		<g id="g20" transform="matrix(1.7684553,0,0,1.7684553,141.94193,243.10981)">
			<path id="path22" inkscape:connector-curvature="0" fill="#30A1DA" d="M16.358-128.894c0,4.996,4.051,9.047,9.048,9.047
				c4.996,0,9.047-4.051,9.047-9.047s-4.051-9.047-9.047-9.047C20.408-137.941,16.358-133.89,16.358-128.894"/>
		</g>
		<g id="g24" transform="matrix(1.7684553,0,0,1.7684553,141.94193,203.03113)">
			<path id="path26" inkscape:connector-curvature="0" fill="#30A1DA" d="M16.358-76.316c0,4.996,4.051,9.048,9.048,9.048
				c4.996,0,9.047-4.051,9.047-9.048c0-4.996-4.051-9.047-9.047-9.047C20.408-85.364,16.358-81.312,16.358-76.316"/>
		</g>
		<g id="g28" transform="matrix(1.7684553,0,0,1.7684553,141.94193,162.9551)">
			<path id="path30" inkscape:connector-curvature="0" fill="#93C154" d="M16.358-23.742c0,4.996,4.051,9.046,9.048,9.046
				c4.996,0,9.047-4.051,9.047-9.046c0-4.996-4.051-9.047-9.047-9.047C20.408-32.789,16.358-28.738,16.358-23.742"/>
		</g>
		<g id="g32" transform="matrix(1.7684553,0,0,1.7684553,111.88508,182.99275)">
			<path id="path34" inkscape:connector-curvature="0" fill="#93C154" d="M10.919-50.028c0,4.995,4.05,9.046,9.047,9.046
				c4.996,0,9.048-4.052,9.048-9.046c0-4.996-4.052-9.047-9.048-9.047C14.969-59.075,10.919-55.024,10.919-50.028"/>
		</g>
		<g id="g36" transform="matrix(1.7684553,0,0,1.7684553,81.824889,203.03113)">
			<path id="path38" inkscape:connector-curvature="0" fill="#93C154" d="M5.48-76.316c0,4.996,4.055,9.048,9.05,9.048
				c4.993,0,9.044-4.051,9.044-9.048c0-4.996-4.051-9.047-9.044-9.047C9.533-85.364,5.48-81.312,5.48-76.316"/>
		</g>
		<g id="g40" transform="matrix(1.7684553,0,0,1.7684553,81.824889,162.9551)">
			<path id="path42" inkscape:connector-curvature="0" fill="#30A1DA" d="M5.48-23.742c0,4.996,4.055,9.046,9.05,9.046
				c4.993,0,9.044-4.051,9.044-9.046c0-4.996-4.051-9.047-9.044-9.047C9.533-32.788,5.48-28.738,5.48-23.742"/>
		</g>
		<g id="g44" transform="matrix(1.7684553,0,0,1.7684553,46.75978,162.9551)">
			<path id="path46" inkscape:connector-curvature="0" fill="#30A1DA" d="M-0.865-23.742c0,4.997,4.05,9.046,9.047,9.046
				c4.996,0,9.047-4.052,9.047-9.046c0-4.996-4.051-9.047-9.047-9.047C3.186-32.788-0.865-28.738-0.865-23.742"/>
		</g>
		<g id="g48" transform="matrix(1.7684553,0,0,1.7684553,11.691135,162.9551)">
			<path id="path50" inkscape:connector-curvature="0" fill="#30A1DA" d="M-7.211-23.742c0,4.997,4.05,9.046,9.047,9.046
				c4.996,0,9.047-4.052,9.047-9.046c0-4.996-4.051-9.048-9.047-9.048C-3.16-32.788-7.211-28.738-7.211-23.742"/>
		</g>
		<g id="g52" transform="matrix(1.7684553,0,0,1.7684553,111.88508,142.91656)">
			<path id="path54" inkscape:connector-curvature="0" fill="#93C154" d="M10.919,2.547c0,4.998,4.05,9.047,9.047,9.047
				c4.996,0,9.048-4.05,9.048-9.047c0-4.996-4.052-9.048-9.048-9.048C14.969-6.501,10.919-2.449,10.919,2.547"/>
		</g>
		<g id="g56" transform="matrix(1.7684553,0,0,1.7684553,81.824889,122.87818)">
			<path id="path58" inkscape:connector-curvature="0" fill="#93C154" d="M5.48,28.836c0,4.997,4.055,9.049,9.05,9.049
				c4.993,0,9.044-4.052,9.044-9.049c0-4.996-4.051-9.047-9.044-9.047C9.533,19.788,5.48,23.838,5.48,28.836"/>
		</g>
		<g id="g60" transform="matrix(1.7684553,0,0,1.7684553,141.94193,122.87818)">
			<path id="path62" inkscape:connector-curvature="0" fill="#30A1DA" d="M16.358,28.836c0,4.997,4.051,9.048,9.048,9.048
				c4.996,0,9.047-4.051,9.047-9.048c0-4.996-4.051-9.047-9.047-9.047C20.408,19.789,16.358,23.838,16.358,28.836"/>
		</g>
		<g id="g64" transform="matrix(1.7684553,0,0,1.7684553,141.94193,82.799515)">
			<path id="path66" inkscape:connector-curvature="0" fill="#30A1DA" d="M16.358,81.412c0,4.994,4.051,9.046,9.048,9.046
				c4.996,0,9.047-4.051,9.047-9.046c0-4.996-4.051-9.047-9.047-9.047C20.408,72.365,16.358,76.419,16.358,81.412"/>
		</g>
		<g>
			<g id="g68" transform="matrix(1.7684553,0,0,1.7684553,216.13074,149.40926)">
				<path id="path70" inkscape:connector-curvature="0" fill="#606163" d="M34.642-8.568l-5.649,8.421v24.531H18.29v-93.044h10.703
					v54.204c12.905-17,22.924-30.622,30.06-40.887l8.417,6.014L41.498-15.656c3.281,5.37,8.618,12.385,15.99,21.042l16.476,19H61.22
					L34.642-8.568z"/>
			</g>
			<path id="path72" inkscape:connector-curvature="0" fill="#606163" d="M359.362,87.695h17.225v105.263h-17.225V87.695z"/>
			<g id="g74" transform="matrix(1.7684553,0,0,1.7684553,323.9547,155.57817)">
				<path id="path76" inkscape:connector-curvature="0" fill="#606163" d="M76.595-17.944c0-3.926-0.881-7.174-2.647-9.74
					c-2.005-2.966-4.89-4.449-8.658-4.449c-3.29,0-6.694,1.284-10.221,3.847c-4.01,2.889-6.01,6.217-6.01,9.982v39.441h-9.5v-59.522
					h9.5v6.734c3.128-2.966,5.733-5.011,7.814-6.136c2.965-1.682,6.137-2.526,9.498-2.526c5.536,0,10.186,2.068,13.949,6.195
					c3.766,4.127,5.655,8.997,5.655,14.609v40.642h-9.381L76.595-17.944L76.595-17.944L76.595-17.944z"/>
			</g>
			<g id="g78" transform="matrix(1.7684553,0,0,1.7684553,359.2306,167.73453)">
				<path id="path80" inkscape:connector-curvature="0" fill="#606163" d="M90.321-36.421c-2.768,1.883-4.549,4.188-5.352,6.916
					V2.116c4.889,3.769,9.74,5.655,14.549,5.655c5.134,0,9.139-2.806,12.027-8.419c2.402-4.73,3.602-9.899,3.602-15.512
					c0-15.393-5.409-23.085-16.232-23.085C95.957-39.246,93.089-38.306,90.321-36.421 M84.969,8.971v28.982h-9.5v-83.211h9.5v5.651
					c5.292-5.131,9.983-7.694,14.07-7.694c17.716,0,26.576,9.818,26.576,29.462c0,9.619-1.964,17.397-5.888,23.328
					c-4.655,6.895-11.587,10.338-20.808,10.338C93.868,15.826,89.221,13.542,84.969,8.971"/>
			</g>
			<g id="g82" transform="matrix(1.7684553,0,0,1.7684553,418.02131,162.88506)">
				<path id="path84" inkscape:connector-curvature="0" fill="#606163" d="M113.196-29.052c-2.804,4.33-4.211,9.819-4.211,16.474
					c0,6.334,1.326,11.544,3.972,15.633c3.127,4.973,7.655,7.458,13.585,7.458c6.177,0,10.824-2.528,13.95-7.579
					c2.728-4.246,4.093-9.616,4.093-16.112c0-6.172-1.248-11.385-3.732-15.634c-2.964-5.129-7.333-7.693-13.107-7.693
					C121.411-36.504,116.565-34.02,113.196-29.052 M103.575,6.184c-3.287-5.531-4.928-12.026-4.928-19.483
					c0-10.338,3.249-18.394,9.738-24.169c5.294-4.728,11.542-7.091,18.761-7.091c7.132,0,13.267,2.363,18.398,7.091
					c6.253,5.777,9.378,13.831,9.378,24.169c0,7.217-1.848,13.748-5.532,19.603c-5.048,8.015-12.507,12.022-22.369,12.022
					C116.204,18.327,108.385,14.283,103.575,6.184"/>
			</g>
			<path id="path86" inkscape:connector-curvature="0" fill="#606163" d="M706.865,87.695h17.226v105.263h-17.226V87.695z"/>
			<g id="g88" transform="matrix(1.7684553,0,0,1.7684553,530.59798,155.57817)">
				<path id="path90" inkscape:connector-curvature="0" fill="#606163" d="M157-17.944c0-3.926-0.88-7.174-2.648-9.74
					c-2.005-2.966-4.887-4.449-8.658-4.449c-3.284,0-6.692,1.284-10.222,3.847c-4.005,2.889-6.009,6.217-6.009,9.982v39.441h-9.499
					v-59.522h9.499v6.734c3.125-2.966,5.731-5.011,7.816-6.136c2.964-1.682,6.129-2.526,9.494-2.526
					c5.535,0,10.187,2.068,13.95,6.195c3.773,4.127,5.653,8.997,5.653,14.609v40.642h-9.378v-39.078L157-17.944L157-17.944z"/>
			</g>
			<g id="g92" transform="matrix(1.7684553,0,0,1.7684553,559.30779,120.05361)">
				<path id="path94" inkscape:connector-curvature="0" fill="#606163" d="M168.171,36.053c-2.164-3.447-3.245-7.535-3.245-12.269
					v-34.265h-9.498v-7.94h9.498v-33.635h9.499v33.635h15.512v8.061l-15.512-0.12v35.714c0,5.37,2.286,8.057,6.855,8.057
					c2.486,0,5.612-1.804,9.379-5.414l4.689,6.492c-4.491,5.212-10.06,7.818-16.714,7.818
					C174.149,42.187,170.662,40.141,168.171,36.053"/>
			</g>
			<g id="g96" transform="matrix(1.7684553,0,0,1.7684553,470.85745,187.19444)">
				<path id="path98" inkscape:connector-curvature="0" fill="#606163" d="M133.755-66c-1.241-1.286-1.865-2.848-1.865-4.692
					c0-1.844,0.626-3.391,1.865-4.63c1.245-1.243,2.785-1.865,4.628-1.865c1.847,0,3.37,0.621,4.571,1.865
					c1.204,1.241,1.804,2.784,1.804,4.63c0,1.844-0.6,3.404-1.804,4.692c-1.2,1.278-2.724,1.923-4.571,1.923
					C136.539-64.079,135-64.723,133.755-66"/>
			</g>
			<g id="g100" transform="matrix(1.7684553,0,0,1.7684553,264.99812,187.19444)">
				<path id="path102" inkscape:connector-curvature="0" fill="#606163" d="M53.656-66c-1.24-1.286-1.861-2.848-1.861-4.692
					c0-1.844,0.621-3.391,1.861-4.63c1.246-1.243,2.785-1.865,4.632-1.865c1.844,0,3.367,0.621,4.571,1.865
					c1.204,1.241,1.804,2.784,1.804,4.63c0,1.844-0.601,3.404-1.804,4.692c-1.204,1.278-2.726,1.923-4.571,1.923
					C56.441-64.079,54.9-64.723,53.656-66"/>
			</g>
		</g>
	</g>
</g>
<g opacity="0.79">
	<path fill="#30A1DA" d="M961.901,123.591h8.657v30.253h0.197c3.084-5.372,8.66-8.755,16.42-8.755
		c12.041,0,20.401,9.951,20.401,24.48c0,17.217-10.946,25.775-21.693,25.775c-6.966,0-12.54-2.688-16.221-8.958h-0.199l-0.498,7.862
		h-7.464c0.199-3.282,0.399-8.16,0.399-12.438V123.591L961.901,123.591z M970.558,174.941c0,1.095,0.1,2.189,0.397,3.185
		c1.593,6.071,6.767,10.251,13.136,10.251c9.255,0,14.628-7.465,14.628-18.509c0-9.653-4.976-17.914-14.429-17.914
		c-5.87,0-11.444,4.181-13.235,10.747c-0.3,1.095-0.497,2.289-0.497,3.686V174.941z"/>
	<path fill="#30A1DA" d="M1023.398,171.758c0.199,11.844,7.664,16.719,16.521,16.719c6.271,0,10.151-1.095,13.337-2.488l1.592,6.27
		c-3.084,1.393-8.46,3.083-16.121,3.083c-14.827,0-23.685-9.849-23.685-24.381c0-14.529,8.556-25.874,22.589-25.874
		c15.821,0,19.902,13.733,19.902,22.59c0,1.791-0.099,3.086-0.298,4.079h-33.837V171.758z M1049.075,165.488
		c0.102-5.474-2.288-14.134-12.14-14.134c-8.956,0-12.738,8.06-13.434,14.134H1049.075z"/>
	<path fill="#30A1DA" d="M1078.932,134.538v11.543h12.539v6.67h-12.539v25.973c0,5.974,1.692,9.354,6.568,9.354
		c2.39,0,3.783-0.196,5.076-0.596l0.397,6.668c-1.69,0.596-4.378,1.194-7.762,1.194c-4.081,0-7.364-1.394-9.453-3.682
		c-2.388-2.688-3.384-6.966-3.384-12.639v-26.272h-7.465v-6.668h7.465v-8.955L1078.932,134.538z"/>
	<path fill="#30A1DA" d="M1135.16,182.703c0,4.181,0.197,8.26,0.696,11.543h-7.862l-0.696-6.068H1127
		c-2.688,3.781-7.863,7.163-14.73,7.163c-9.754,0-14.729-6.866-14.729-13.831c0-11.646,10.35-18.012,28.959-17.915v-0.994
		c0-3.882-1.095-11.146-10.947-11.047c-4.578,0-9.255,1.295-12.639,3.582l-1.99-5.872c3.98-2.486,9.853-4.179,15.924-4.179
		c14.729,0,18.313,10.051,18.313,19.603V182.703L1135.16,182.703z M1126.7,169.668c-9.553-0.199-20.4,1.49-20.4,10.848
		c0,5.771,3.78,8.357,8.161,8.357c6.368,0,10.448-3.979,11.842-8.059c0.299-0.995,0.397-1.991,0.397-2.787V169.668z"/>
</g>
</svg>
